<?xml version="1.0" standalone="no"?>
<!DOCTYPE svg PUBLIC "-//W3C//DTD SVG 20010904//EN"
 "http://www.w3.org/TR/2001/REC-SVG-20010904/DTD/svg10.dtd">
<svg version="1.0" xmlns="http://www.w3.org/2000/svg"
 width="320.000000pt" height="320.000000pt" viewBox="0 0 320.000000 320.000000"
 preserveAspectRatio="xMidYMid meet">
<metadata>
Created by potrace 1.11, written by Peter Selinger 2001-2013
</metadata>
<g transform="translate(0.000000,320.000000) scale(0.100000,-0.100000)"
fill="#000000" stroke="none">
<path d="M2300 3192 c-8 -2 -23 -11 -32 -19 -17 -15 -50 -14 -178 5 -85 14
-222 -18 -342 -79 -75 -38 -207 -127 -245 -166 -58 -61 -101 -136 -135 -238
-17 -52 -29 -97 -26 -100 2 -3 22 4 44 14 37 18 40 19 56 3 21 -21 34 -113 19
-139 -10 -17 -10 -17 -12 2 -1 30 -9 77 -18 110 l-9 30 -15 -35 c-10 -23 -12
-41 -6 -58 20 -52 3 -101 -91 -271 -30 -54 -15 -69 75 -73 80 -3 99 10 46 31
-27 12 -28 14 -19 52 12 44 15 45 63 25 22 -9 51 -39 85 -85 56 -77 93 -111
120 -111 28 0 27 149 -1 211 -23 51 -10 47 -189 66 -30 3 -57 7 -58 9 -2 1 14
12 36 23 22 11 42 26 44 33 5 13 3 52 -5 93 -4 18 19 134 27 143 2 2 48 -26
103 -61 55 -36 109 -70 121 -76 l21 -11 -19 42 -19 43 22 6 c21 5 20 8 -21 47
-43 42 -114 71 -176 73 -30 0 -30 1 -7 10 49 19 142 -10 209 -66 l31 -26 -10
37 c-6 20 -8 38 -5 41 2 3 24 -8 48 -24 75 -51 72 -51 64 -3 -9 60 -31 96 -92
157 -54 54 -58 61 -22 42 19 -10 20 -8 15 26 -5 35 -12 49 -25 50 -51 4 -73
41 -40 67 46 35 192 91 236 91 37 -1 141 -12 165 -19 4 -1 15 -2 24 -3 13 -1
14 -4 6 -12 -13 -13 -6 -22 36 -51 17 -12 30 -14 48 -7 13 5 34 9 45 9 19 0
20 -1 4 -25 -16 -24 -15 -27 8 -62 56 -86 54 -185 -4 -273 -16 -24 -27 -47
-25 -51 3 -3 19 -9 36 -13 37 -7 31 -20 -9 -22 -15 -1 -30 -2 -34 -3 -7 -1 17
-59 66 -161 25 -51 26 -59 15 -103 -6 -26 -8 -51 -5 -54 3 -4 7 -4 9 -2 2 2
19 27 39 56 l37 51 -56 53 -55 52 39 -6 c21 -4 49 -9 63 -12 14 -3 49 -8 79
-11 61 -7 73 2 64 49 l-6 28 64 -4 c75 -5 112 6 133 38 28 42 21 56 -81 191
l-23 31 40 -4 40 -5 -12 32 c-22 64 -161 243 -203 261 -11 5 -49 27 -85 48
-103 63 -114 69 -130 63z"/>
<path d="M2845 2426 c-9 -14 -15 -33 -13 -43 4 -21 48 -39 73 -29 16 6 17 8 1
24 -9 10 -16 23 -16 28 0 5 -7 17 -15 27 -13 18 -14 17 -30 -7z"/>
<path d="M823 2310 c52 -46 54 -63 11 -150 -58 -118 -52 -155 33 -230 54 -47
69 -76 52 -96 -19 -23 -37 -17 -31 12 4 21 -5 36 -46 77 -76 79 -85 106 -58
177 7 19 17 44 21 55 10 27 -38 -43 -52 -75 -18 -44 -7 -96 37 -159 55 -82 54
-107 -8 -117 -45 -8 -52 -12 -52 -37 0 -20 -5 -24 -32 -25 -18 0 -42 -6 -55
-13 -62 -33 -36 -156 43 -197 l32 -17 -64 -44 c-36 -24 -70 -41 -79 -38 -27
11 -30 58 -7 98 33 56 29 83 -5 39 -15 -19 -49 -57 -75 -84 -27 -27 -48 -57
-48 -67 0 -27 -2 -32 -18 -48 -10 -11 -11 -16 -1 -22 7 -4 12 -21 11 -38 0
-20 3 -29 10 -25 16 10 0 -65 -17 -83 -8 -7 -17 -30 -21 -51 -4 -20 -23 -68
-44 -107 -20 -38 -35 -77 -33 -86 2 -9 -8 -27 -24 -39 l-28 -23 30 7 c56 14
103 75 161 211 11 28 21 54 22 60 0 5 5 11 12 13 6 2 10 0 9 -5 -3 -19 1 -43
9 -43 4 0 7 15 7 32 0 26 4 33 20 33 12 0 21 -9 25 -25 5 -20 8 -14 13 26 7
65 61 166 107 201 22 17 7 25 -25 13 -46 -18 -40 -3 8 18 25 11 52 32 62 49 9
16 31 35 48 41 28 11 33 9 67 -22 51 -46 68 -50 166 -36 96 14 130 34 159 97
38 79 56 233 33 277 -8 15 -17 17 -63 11 l-54 -6 5 33 c8 47 -18 75 -95 101
-85 30 -92 41 -63 119 39 110 30 137 -68 202 -19 13 -46 27 -59 31 -21 6 -19
2 12 -25z m-92 -630 c13 0 51 -79 43 -91 -3 -6 -13 5 -22 23 -10 18 -32 40
-50 49 -31 16 -26 33 6 23 8 -2 18 -4 23 -4z m-7 -72 c9 -12 16 -28 16 -35 0
-19 -46 5 -65 34 -33 49 15 50 49 1z m-245 -326 c-4 -19 -13 -40 -19 -46 -9
-8 -10 -5 -5 14 5 14 7 40 7 58 -1 26 1 30 12 20 9 -9 11 -23 5 -46z"/>
<path d="M2436 2242 c48 -87 51 -90 59 -53 10 46 -1 67 -51 95 l-45 25 37 -67z"/>
<path d="M1477 2101 l-28 -18 23 -27 c18 -21 35 -28 79 -33 47 -5 57 -3 63 12
6 16 1 22 -63 72 -22 17 -42 16 -74 -6z"/>
<path d="M2273 2093 c-15 -5 -29 -55 -38 -136 l-7 -58 30 15 c36 19 42 33 42
100 l0 53 30 -5 c22 -3 30 0 30 11 0 21 -54 34 -87 20z"/>
<path d="M1647 1959 c-79 -40 -84 -45 -90 -88 -2 -13 -13 -28 -25 -32 -16 -6
-25 -1 -43 25 l-23 34 -39 -97 c-42 -104 -47 -147 -25 -201 l15 -35 6 43 c7
38 9 41 27 32 10 -5 34 -10 53 -10 29 0 44 9 88 55 38 39 56 52 65 44 18 -15
77 50 68 76 -18 57 -15 90 11 129 20 30 23 41 14 52 -15 18 -12 19 -102 -27z"/>
<path d="M2069 1558 c28 -83 112 -268 121 -268 3 0 11 4 18 8 10 7 7 28 -16
98 -43 131 -76 189 -134 233 -14 11 -12 -2 11 -71z"/>
<path d="M827 1443 c-4 -3 0 -11 9 -17 33 -25 -19 -102 -73 -110 -9 -2 -19 -8
-21 -14 -2 -7 14 -4 40 8 24 10 57 20 73 22 27 3 30 0 33 -29 2 -25 -1 -33
-12 -33 -9 0 -16 -8 -16 -19 0 -23 -39 -53 -107 -83 -54 -24 -43 -36 14 -17
54 18 60 19 79 5 23 -18 10 -51 -31 -79 l-33 -23 45 -10 c44 -11 46 -10 65 20
14 23 18 43 15 79 -2 26 0 50 5 53 4 3 15 18 23 34 17 32 5 85 -24 108 -9 8
-15 25 -13 45 1 17 -1 38 -6 45 -10 14 -55 25 -65 15z"/>
<path d="M2385 1421 c-3 -5 -59 -134 -125 -287 -88 -204 -117 -280 -107 -286
15 -9 30 23 165 339 74 172 96 233 86 237 -7 3 -16 1 -19 -3z"/>
<path d="M1772 1317 c-25 -27 -32 -59 -23 -112 l7 -40 23 83 c12 46 21 86 18
88 -2 2 -13 -6 -25 -19z"/>
<path d="M712 1301 c-11 -7 -11 -9 2 -14 10 -4 16 -1 16 8 0 17 -1 17 -18 6z"/>
<path d="M1879 1204 c-1 -25 -1 -596 0 -607 1 -5 4 -6 9 -3 10 6 9 612 -1 622
-4 4 -7 -1 -8 -12z"/>
<path d="M1359 1048 c-18 -30 -20 -43 -14 -138 3 -58 7 -119 8 -137 3 -57 17
-48 18 13 2 66 4 104 13 217 3 42 4 77 1 77 -3 0 -15 -15 -26 -32z"/>
<path d="M747 1016 c4 -24 2 -36 -6 -36 -6 0 -16 -12 -21 -26 -12 -31 -30 -21
-50 26 -19 46 -31 36 -14 -12 16 -46 10 -62 -41 -108 -15 -14 -34 -33 -43 -42
-12 -13 -19 -14 -29 -6 -10 8 -13 7 -13 -5 0 -22 -18 -31 -35 -17 -13 10 -15
8 -15 -12 0 -14 3 -27 6 -31 15 -15 110 54 199 144 89 92 96 101 88 126 -14
42 -33 41 -26 -1z"/>
<path d="M1238 728 c-20 -62 -59 -187 -88 -277 -28 -90 -63 -189 -77 -220 -29
-66 -39 -142 -25 -191 l10 -35 2 35 c6 136 44 235 136 355 77 102 86 129 63
204 -9 30 -7 51 15 128 30 106 31 113 13 113 -8 0 -27 -44 -49 -112z"/>
<path d="M412 740 c-22 -29 -23 -30 -47 -14 -23 15 -25 15 -19 0 3 -9 10 -16
15 -16 5 0 9 -6 9 -14 0 -9 -7 -12 -19 -9 -17 4 -18 -1 -16 -49 2 -29 0 -72
-4 -95 -5 -26 -4 -46 2 -52 18 -18 25 -13 32 22 20 92 49 161 81 197 34 37 34
39 15 49 -26 14 -24 15 -49 -19z"/>
<path d="M2011 551 c-40 -82 -46 -101 -34 -106 9 -3 17 -4 18 -3 2 4 53 120
70 161 9 22 11 38 5 42 -5 3 -32 -39 -59 -94z"/>
<path d="M2659 563 c-59 -52 -81 -88 -52 -88 14 0 133 111 133 124 0 25 -22
15 -81 -36z"/>
<path d="M2508 196 c-86 -90 -96 -111 -40 -82 49 25 92 66 113 108 38 74 14
66 -73 -26z"/>
</g>
</svg>
